<?xml version="1.0" encoding="UTF-8"?>
<!DOCTYPE svg PUBLIC "-//W3C//DTD SVG 1.1//EN" "http://www.w3.org/Graphics/SVG/1.1/DTD/svg11.dtd">
<!-- Creator: CorelDRAW 2018 (64-Bit) -->
<svg xmlns="http://www.w3.org/2000/svg" xml:space="preserve" width="141.448mm" height="152.404mm" version="1.1" style="shape-rendering:geometricPrecision; text-rendering:geometricPrecision; image-rendering:optimizeQuality; fill-rule:evenodd; clip-rule:evenodd"
viewBox="0 0 16006.13 17245.91"
 xmlns:xlink="http://www.w3.org/1999/xlink">
 <defs>
  <style type="text/css">
   <![CDATA[
    .fil0 {fill:white}
   ]]>
  </style>
 </defs>
 <g id="Layer_x0020_1">
  <metadata id="CorelCorpID_0Corel-Layer"/>
  <path class="fil0" d="M10468.72 7397.04c157.59,0 363.72,19.06 500.09,37.13 373.55,49.48 736.42,138.19 1075.81,274.09l148.7 57.91c264.94,122.37 332.65,160.41 576.54,305.03l177.01 122.01c254.1,163.7 567.96,445.1 756.85,679.73 159.87,198.57 328.29,396.31 456.13,618.29 17.83,30.97 27.09,55.8 47.59,90.15 167.2,280.07 319.32,643.55 404.93,958.76 20.49,75.44 29.55,147.76 49.38,226.1 57.27,226.11 84.08,449.11 90.48,694.64 1.73,66.1 10.93,62.8 14.22,123.57 17.44,322.88 -35.36,784.88 -107.24,1077.51 -9.9,40.28 -21.1,65.62 -26.72,97.26 -53.67,302.41 -257.04,816.39 -422.74,1064.93l-377.76 558.91c-28.47,36.89 -23.64,40.08 -60.72,77.03 -54.07,53.86 -67.7,97.87 -120.62,141.1 -63.65,52.02 -133.3,141.54 -196.05,203.41l-142.13 133.37c-18.24,13.84 -21.75,15.64 -39.05,29.82l-14.89 12.66c-2.17,1.84 -5.3,4.47 -7.47,6.31l-122.73 97.66c-2.25,1.78 -5.35,4.39 -7.57,6.2l-22.25 19.08c-103.43,87.74 -210.97,150.66 -324.03,226.95 -394.77,266.34 -848.67,433.91 -1308.41,551.08 -389.72,99.34 -488.19,81.5 -842.79,111.72 -90.09,7.68 -231.51,13.09 -314.88,0.19l-414.86 -28.45 -635.49 -131.68c-326.45,-102.93 -647.03,-234.07 -941.2,-408.9l-163.04 -98.67c-532.64,-343.78 -1010.79,-800.47 -1337.96,-1348.1l-282.31 -530.4c-226.31,-449.81 -376.33,-1267.98 -376.33,-1744.97 0,-336.22 54.19,-646.1 115.91,-958.51 70.12,-354.87 199.33,-652.23 344.4,-977.96l434.39 -681.35c1.69,-2.4 3.81,-5.87 5.45,-8.32 147.7,-220.86 568.92,-639.25 783.97,-786.34 161.03,-110.14 311.05,-236.86 487.49,-325.22l549.95 -262.74c72.1,-27.34 127.34,-55.49 198.61,-76.89 454.81,-136.64 908.44,-234.11 1391.29,-234.11zm5537.41 4012.39l0 628.27c-1.47,15.39 -3.11,30.11 -4.92,44.04 -6.16,47.32 -9.46,190.48 -20.15,262.87l-217.9 1021.81c-40.67,151.68 -104,310.73 -166.25,453.61l-91.17 211.87c-33.39,71.66 -67.48,144.06 -103.53,213.28 -17.65,33.91 -39.58,65.27 -56.67,94.86 -19.14,33.14 -31.7,62.57 -50.88,100.64 -91.39,181.34 -248.81,399.32 -372.7,563.97 -149.38,198.54 -305.18,390.98 -480.54,566.34l-339.56 321.62c-103.88,103.3 -230.99,182.55 -343.99,275.87l-266.81 187.75c-35.83,23.46 -70.46,43.75 -102.96,62.33 -20.86,11.93 -31.91,16.39 -52.31,30.34 -140.37,96.03 -289.9,169.6 -442.72,246.02l-321.24 147.11c-39.79,18.66 -66.65,26.02 -111,40.51l-443.49 147.92c-239.96,72.72 -478.75,128.46 -731.75,164.49 -75.58,10.77 -187.26,25.66 -268.56,34.85 -61.77,6.99 -142.25,12.35 -230.72,16.1l-635.22 0c-30.17,-1.72 -56.4,-3.76 -77.5,-6.11 -6.03,-0.67 -22.1,-1.29 -28.84,-1.57 -269.83,-11.37 -537.21,-81.16 -799.97,-118.29 -185.3,-26.17 -608.52,-167.79 -800.7,-246.15l-229.28 -101.32c-178.52,-67.64 -454.63,-225.15 -615.54,-321.13l-260.06 -166.95c-99.65,-61.84 -161.14,-123.88 -243.74,-183.26l-239.37 -187.65c-21.72,-21.16 -32.1,-35.17 -55.47,-54.72l-159.18 -143.87c-49.98,-39.87 -70.28,-59.05 -115.9,-104.5 -166.32,-165.74 -554.82,-622.24 -657.53,-816.34 -1276.46,0 -2552.9,0 -3829.34,0 -172.13,0 -308.14,2.67 -462.72,-19.4 -232.99,-33.27 -513.57,-134.44 -702.81,-261.43l-252.1 -188.68 -243.61 -266.06c-33.26,-48.81 -75.87,-91.47 -101.59,-132.58 -64.7,-103.46 -108.99,-210.17 -155.72,-326.38 -73.02,-181.61 -120.11,-369.58 -120.11,-582.41l0 -11240.1c0,-185.98 39.37,-359.25 101.59,-532.04l151.06 -331.06c17.64,-32.54 36.15,-64.79 57.99,-93.53l140.68 -176.14c36.46,-36.3 42.36,-55.14 75.11,-90.18 32.59,-34.88 49.12,-38.53 82.96,-68.56 113.02,-100.35 219.79,-191.2 359.25,-260.6 163.61,-81.44 198.04,-85.07 342.1,-140.02l253.29 -63.52c153.4,-23.47 278.94,-21.29 433.29,-21.29 2093.75,0 4187.49,0 6281.24,0l2620.62 2641.29c165.23,165.25 320.79,340.94 497.64,494.13 2.15,1.87 5.27,4.48 7.42,6.35l68.74 69c1.9,2.1 4.56,5.21 6.48,7.29l642.05 639c143.8,150.75 194.64,139.81 193.11,330.32l-0.11 2300.48 220.55 96.26c34.2,14.28 79.7,26.2 112.4,39.14 146.62,58.03 274.69,140.38 416.74,203.11 103.25,45.59 395.37,220.17 480.5,290.88 36.66,30.44 58.45,39.74 100.24,65.07l594.85 479.57c156.15,154.1 322.65,305.88 459.88,476.8l392.55 530.35c28.78,46.87 39.52,45.74 69.6,95.7 21.88,36.35 35.28,59.75 56.55,94.97l218.57 401.28c15.39,29.38 16.92,28.45 29.76,52.89l165.8 371.41c30.61,73.87 49.5,145.88 80.5,222.55 34.64,85.63 46.01,154.31 74.33,242.48 77.53,241.25 128.67,497.28 169.74,753.16 20.2,125.83 38.23,312.19 49.05,505.9zm-11088.58 147.55c0,519.43 26.09,870.84 151.5,1377.49l179.09 606.06c-88.07,0 -3362.9,12.99 -3497.27,-1.49 -63.67,-6.87 -103.95,-26 -156.01,-50.6 -240.47,-113.55 -355.14,-311.75 -355.14,-609.09l0 -11005.93c0,-161.04 52.27,-317.39 161.55,-430.8l155.32 -119.78c55.98,-33.74 144.99,-69.29 234.13,-69.29l5592.49 0 0 3691.61 3691.61 0 0 1281.04c-108.6,-52.11 -584.28,-68.88 -757.61,-68.88 -218.6,0 -427.73,27.87 -620.72,54.24 -54.29,7.42 -98.87,18.4 -141.13,24.8 -239.14,36.26 -440.39,84.37 -667.19,144.88l-857.74 340.64 -332.33 177.34c-27.11,18.98 -13.71,14.81 -49.39,33.26 -27.26,14.09 -28.17,10.57 -56.09,26.56 -104.13,59.62 -470.99,313.55 -590.84,414.7l-276.33 247.11c-34.25,31.54 -53.03,38.73 -89.7,75.59l-290.76 301.56c-68.55,61.93 -278.62,333.38 -341.23,416.37l-428.16 666.28 -190.3 395.76c-17.37,40.04 -26.06,77.69 -45.08,120.22 -149.4,334.15 -160.26,439.26 -255.75,763.56 -24.43,82.93 -49.47,172.52 -64.78,265.81 -47.46,289.2 -102.11,640.51 -102.11,930.98zm3705.38 -9421.85l1559.95 1553.11 -1559.95 3.43 0 -1556.53zm1225.94 8953.52l-2465.67 0 0 1239.71 2465.67 0 0 2465.67 1239.71 0 0 -2465.67 2465.67 0 0 -1239.71 -2465.67 0 0 -2465.67 -1239.71 0 0 2465.67z"/>
 </g>
</svg>
