<?xml version="1.0" encoding="UTF-8"?>
<!DOCTYPE svg PUBLIC "-//W3C//DTD SVG 1.1//EN" "http://www.w3.org/Graphics/SVG/1.1/DTD/svg11.dtd">
<!-- Creator: CorelDRAW 2018 (64-Bit) -->
<svg xmlns="http://www.w3.org/2000/svg" xml:space="preserve" width="1157px" height="1157px" version="1.1" style="shape-rendering:geometricPrecision; text-rendering:geometricPrecision; image-rendering:optimizeQuality; fill-rule:evenodd; clip-rule:evenodd"
viewBox="0 0 1157 1157"
 xmlns:xlink="http://www.w3.org/1999/xlink">
 <defs>
  <style type="text/css">
   <![CDATA[
    .fil0 {fill:#4D5B62}
   ]]>
  </style>
 </defs>
 <g id="Layer_x0020_1">
  <metadata id="CorelCorpID_0Corel-Layer"/>
  <path class="fil0" d="M169.44 169.44c225.92,-225.92 592.2,-225.92 818.12,0 191.28,191.27 220.61,483.16 88,705.29 -24.02,40.24 16.12,137.68 35.93,276.86 -105.02,-32.35 -200.49,-97 -243.07,-72.32 -221.32,128.33 -509.51,97.76 -698.98,-91.71 -225.92,-225.92 -225.92,-592.2 0,-818.12zm88.49 88.49c177.05,-177.05 464.1,-177.05 641.14,0 177.05,177.05 177.05,464.09 0,641.14 -177.04,177.05 -464.09,177.05 -641.14,0 -177.05,-177.04 -177.05,-464.1 0,-641.14zm256.81 255.89l-257.3 0 0 129.36 257.3 0 0 257.3 129.37 0 0 -257.3 257.3 0 0 -129.36 -257.3 0 0 -257.3 -129.37 0 0 257.3z"/>
 </g>
</svg>
