<?xml version="1.0" encoding="UTF-8"?>
<!DOCTYPE svg PUBLIC "-//W3C//DTD SVG 1.1//EN" "http://www.w3.org/Graphics/SVG/1.1/DTD/svg11.dtd">
<!-- Creator: CorelDRAW 2018 (64-Bit) -->
<svg xmlns="http://www.w3.org/2000/svg" xml:space="preserve" width="1157px" height="1157px" version="1.1" style="shape-rendering:geometricPrecision; text-rendering:geometricPrecision; image-rendering:optimizeQuality; fill-rule:evenodd; clip-rule:evenodd"
viewBox="0 0 1157 1157"
 xmlns:xlink="http://www.w3.org/1999/xlink">
 <defs>
  <style type="text/css">
   <![CDATA[
    .fil0 {fill:#4D5B62}
   ]]>
  </style>
 </defs>
 <g id="Layer_x0020_1">
  <metadata id="CorelCorpID_0Corel-Layer"/>
  <path class="fil0" d="M578.5 0c319.5,0 578.5,259 578.5,578.5 0,319.5 -259,578.5 -578.5,578.5 -319.5,0 -578.5,-259 -578.5,-578.5 0,-319.5 259,-578.5 578.5,-578.5zm0 125.14c250.38,0 453.36,202.98 453.36,453.36 0,250.38 -202.98,453.36 -453.36,453.36 -250.38,0 -453.36,-202.98 -453.36,-453.36 0,-250.38 202.98,-453.36 453.36,-453.36zm84.87 306.72c-8.7,3.67 -135.26,133.75 -157.86,155.68 -5.8,5.63 -12.24,12.5 -24.79,10.78 -8.93,-1.22 -16.84,-8.4 -18.17,-18.01 -1.71,-12.4 4.06,-19.15 9.21,-24.71 20.65,-22.29 46.33,-46.13 68.69,-68.33 22.85,-22.69 45.42,-46.1 69.18,-69.62 24.37,-24.13 64.11,-68.4 89.88,-82.36 60.02,-32.51 138.6,15.58 132.49,88.74 -3.57,42.75 -33.91,65.29 -53.54,85.17l-206.39 206.35c-23.67,23.17 -45.96,45.72 -69.45,69.39 -19.8,19.95 -43.56,49.14 -90.51,46.83 -58.45,-2.88 -99.21,-58.38 -82.35,-118.01 5.59,-19.77 15.94,-30.11 25.82,-42.12 -6.38,-16.33 -25.54,-33.27 -29.95,-81.96 -0.36,-3.92 -0.79,-9.86 -3.05,-13.06 -7.95,5.66 -20.03,19.29 -27.67,26.98 -8.96,9.02 -17.11,17.97 -24.71,27.99 -95.59,126.03 8.44,312.51 172.08,290.14 69.58,-9.51 92.96,-42.98 132.77,-80.18l53.49 -53.66c51.48,-52.91 108.68,-107.51 160.9,-160.57 25.48,-25.9 87.78,-85.13 104.49,-109.76 30.27,-44.64 39.63,-112.43 16.44,-170.31 -31.9,-79.63 -120.54,-128.3 -205.64,-109.96 -33.27,7.17 -50.64,17.01 -73.69,33.09 -19.32,13.48 -39.77,36.8 -55.14,52.1 -18.32,18.23 -35.28,35.21 -53.52,53.55 -35.67,35.85 -70.32,70.45 -106.28,106.27 -17.03,16.97 -34.04,32.99 -42.11,64.89 -23.84,94.18 70.93,173 161.03,131.4 22.41,-10.34 40.69,-31.82 58.04,-49.15 9.11,-9.1 17.95,-17.82 27.21,-27.25 29.22,-29.79 61.35,-53.34 67.7,-92.1 5.18,-31.69 -7.45,-64.51 -24.6,-78.23z"/>
 </g>
</svg>
