<?xml version="1.0" encoding="UTF-8"?>
<!DOCTYPE svg PUBLIC "-//W3C//DTD SVG 1.1//EN" "http://www.w3.org/Graphics/SVG/1.1/DTD/svg11.dtd">
<!-- Creator: CorelDRAW 2018 (64-Bit) -->
<svg xmlns="http://www.w3.org/2000/svg" xml:space="preserve" width="1277px" height="1544px" version="1.1" style="shape-rendering:geometricPrecision; text-rendering:geometricPrecision; image-rendering:optimizeQuality; fill-rule:evenodd; clip-rule:evenodd"
viewBox="0 0 1197.66 1448.3"
 xmlns:xlink="http://www.w3.org/1999/xlink">
 <defs>
  <style type="text/css">
   <![CDATA[
    .fil0 {fill:white}
   ]]>
  </style>
 </defs>
 <g id="Layer_x0020_1">
  <metadata id="CorelCorpID_0Corel-Layer"/>
  <path class="fil0" d="M121.36 1260.85c0,29.1 11.23,48.51 34.77,59.62 5.1,2.41 9.04,4.29 15.27,4.96 9.57,1.03 330.87,0.64 427.43,0.35 96.55,0.29 417.86,0.68 427.42,-0.35 6.24,-0.67 10.18,-2.55 15.27,-4.96 23.55,-11.11 34.77,-30.52 34.77,-59.62l0 -1077.45c0,-15.76 -5.12,-31.07 -15.81,-42.17l-15.21 -11.73c-5.48,-3.3 -14.19,-6.78 -22.92,-6.78l-423.52 0 -423.53 0c-8.72,0 -17.44,3.48 -22.92,6.78l-15.2 11.73c-10.7,11.1 -15.82,26.41 -15.82,42.17l0 1077.45zm-121.36 -1086.89c0,-18.2 3.85,-35.17 9.95,-52.08l14.78 -32.41c1.73,-3.19 3.54,-6.35 5.68,-9.16l13.77 -17.24c3.57,-3.56 4.15,-5.4 7.36,-8.83 3.19,-3.41 4.81,-3.77 8.12,-6.71 11.06,-9.83 21.51,-18.72 35.17,-25.51 16.01,-7.98 19.38,-8.33 33.49,-13.71l24.79 -6.22c15.02,-2.3 27.31,-2.08 42.42,-2.08 85.02,0 318.28,0 403.3,0 85.02,0 318.28,0 403.29,0 15.11,0 27.4,-0.22 42.42,2.08l24.8 6.22c14.1,5.38 17.47,5.73 33.49,13.71 13.65,6.79 24.1,15.68 35.17,25.51 3.31,2.94 4.93,3.3 8.12,6.71 3.21,3.43 3.78,5.27 7.35,8.83l13.77 17.24c2.14,2.81 3.96,5.97 5.68,9.16l14.79 32.41c6.09,16.91 9.95,33.88 9.95,52.08l0 1100.37c0,20.84 -4.61,39.24 -11.76,57.02 -4.58,11.37 -8.91,21.82 -15.25,31.95 -2.51,4.02 -6.69,8.2 -9.94,12.98l-23.85 26.04 -24.68 18.48c-18.53,12.43 -45.99,22.33 -68.8,25.59 -15.14,2.16 -28.45,1.9 -45.3,1.9 -86.8,0 -312.45,0 -399.25,0 -86.8,0 -312.46,0 -399.25,0 -16.85,0 -30.17,0.26 -45.3,-1.9 -22.81,-3.26 -50.28,-13.16 -68.8,-25.59l-24.68 -18.48 -23.85 -26.04c-3.26,-4.78 -7.43,-8.96 -9.95,-12.98 -6.33,-10.13 -10.67,-20.58 -15.24,-31.95 -7.15,-17.78 -11.76,-36.18 -11.76,-57.02l0 -1100.37zm455.85 564.61l0 20.61c0,29.84 -112.37,93.44 -140.16,107.19 -14.02,6.93 -25.57,14.15 -40.52,21.33l-85.52 38.15c-14.41,5.69 -30.62,10.91 -30.62,33.28l0 103.06c0,18.35 12.57,30.92 30.92,30.92l210.25 0c6.56,0 7.17,-6.28 18.02,-17.01l272.62 -273.63c-11.15,-5.89 -24.46,-18.51 -32.47,-29.37 -8.9,-12.08 -6.7,-15.77 -6.7,-34.53l26.41 -37.49c9.08,-15.09 14.29,-25.25 21.32,-42.58 13.97,-34.43 3.12,-23.74 20.81,-43.09 16.66,-18.24 22.57,-46.07 13.68,-70.36 -13.39,-36.56 -10.08,4.52 -10.08,-76.5 0,-44.3 0.23,-69.97 -11.55,-103.88 -20.13,-57.98 -78.99,-91.95 -138.92,-91.95 -40.56,0 -71.71,-1.25 -108.59,17.15 -112.64,56.21 -69.89,189.13 -79.42,233.89 -0.52,2.42 -38.76,54.37 7.56,96.38 10.34,9.38 6.03,13.3 13.45,31.9 11.52,28.87 21.55,48.58 40.37,73 3.31,4.3 9.14,9.3 9.14,13.53zm513.26 0c-12.67,0 -20.49,0.35 -30.43,-8.74 -22.44,-20.52 -7.66,-63.4 22.18,-63.4 54.99,0 46.02,72.14 8.25,72.14zm-208.19 8.25c0,18.17 4.55,43.67 10.3,55.65l-318.98 317.95c1.81,9.46 6.91,19.51 11.15,29.05 2.37,5.33 3.86,9.13 6.12,14.49 5.38,12.81 0.67,11.6 21.38,11.6 28.04,0 48.42,-2.06 76.27,-2.06l14.83 -59.37c1.74,-7.19 2.06,-15.49 8.02,-18.78 1.93,-1.06 80.78,-16.54 86.4,-16.67 0,-16.83 4.93,-39.11 7.37,-56.52l7.06 -56.85c9.62,0 19.25,0.03 28.88,-0.03 13.25,-0.07 17.8,1.83 28.76,2.16 38.87,1.17 27.98,1.91 74.79,-44.9 8.74,-8.74 24.29,-22.3 30.4,-31.43 90.14,47.69 222.62,-23.63 222.62,-136.05 0,-51.64 -12.84,-86.1 -46.86,-120.1 -11.55,-11.54 -28.44,-23.47 -43.86,-30.35 -53.98,-24.09 -109.54,-18.23 -158.32,14.77 -39.87,26.97 -66.33,78.83 -66.33,127.44zm24.73 274.15l-47.41 0c0,12.66 -2.89,25.75 -4.74,38.54 -3.12,21.62 -8.56,33.6 0.62,33.6l183.45 0c41.02,0 30.92,-46.12 30.92,-57.71 0,-10.5 1.76,-13.5 1.97,-20.74 0.39,-13.7 -3.03,-4.63 -0.14,-39.41 0.7,-8.36 -1.65,-10.25 -1.83,-18.18 -9.12,4.37 -42.03,3.2 -55.38,1.78 -31.13,-3.29 -18.45,-9.38 -39.95,12.13 -14.5,14.51 -42.71,49.99 -67.51,49.99z"/>
 </g>
</svg>
