<?xml version="1.0" encoding="UTF-8"?>
<!DOCTYPE svg PUBLIC "-//W3C//DTD SVG 1.1//EN" "http://www.w3.org/Graphics/SVG/1.1/DTD/svg11.dtd">
<!-- Creator: CorelDRAW 2018 (64-Bit) -->
<svg xmlns="http://www.w3.org/2000/svg" xml:space="preserve" width="1157px" height="1157px" version="1.1" style="shape-rendering:geometricPrecision; text-rendering:geometricPrecision; image-rendering:optimizeQuality; fill-rule:evenodd; clip-rule:evenodd"
viewBox="0 0 841.09 841.09"
 xmlns:xlink="http://www.w3.org/1999/xlink">
 <defs>
  <style type="text/css">
   <![CDATA[
    .fil0 {fill:#0FFF1B}
   ]]>
  </style>
 </defs>
 <g id="Layer_x0020_1">
  <metadata id="CorelCorpID_0Corel-Layer"/>
  <path class="fil0" d="M420.55 0c232.26,0 420.54,188.28 420.54,420.55 0,232.26 -188.28,420.54 -420.54,420.54 -232.27,0 -420.55,-188.28 -420.55,-420.54 0,-232.27 188.28,-420.55 420.55,-420.55zm0 90.97c182.01,0 329.57,147.56 329.57,329.58 0,182.01 -147.56,329.57 -329.57,329.57 -182.02,0 -329.58,-147.56 -329.58,-329.57 0,-182.02 147.56,-329.58 329.58,-329.58zm-53.08 379.16l-99.38 -99.37 -71.11 71.11 176.13 164.85 271 -271.01 -71.11 -71.11 -205.53 205.53z"/>
 </g>
</svg>
