<?xml version="1.0" encoding="UTF-8"?>
<!DOCTYPE svg PUBLIC "-//W3C//DTD SVG 1.1//EN" "http://www.w3.org/Graphics/SVG/1.1/DTD/svg11.dtd">
<!-- Creator: CorelDRAW 2018 (64-Bit) -->
<svg xmlns="http://www.w3.org/2000/svg" xml:space="preserve" width="128.395mm" height="130.511mm" version="1.1" style="shape-rendering:geometricPrecision; text-rendering:geometricPrecision; image-rendering:optimizeQuality; fill-rule:evenodd; clip-rule:evenodd"
viewBox="0 0 10964.48 11145.22"
 xmlns:xlink="http://www.w3.org/1999/xlink">
 <defs>
  <style type="text/css">
   <![CDATA[
    .fil0 {fill:white}
   ]]>
  </style>
 </defs>
 <g id="Layer_x0020_1">
  <metadata id="CorelCorpID_0Corel-Layer"/>
  <path class="fil0" d="M481.96 9669.22l0 -5361.75 10000.57 0 0 5361.75c0,518.67 -502.21,994.03 -1024.15,994.03l-7952.27 0c-523.06,0 -1024.15,-471.61 -1024.15,-994.03zm-481.96 -6747.37l0 6747.37c0,814.9 738.2,1475.99 1566.36,1475.99l7831.77 0c828.16,0 1566.35,-661.09 1566.35,-1475.99l0 -6747.37c0,-780.51 -719.2,-1475.98 -1506.1,-1475.98l-451.83 0 0 1506.11c0,605.44 -491.59,1114.52 -1024.16,1114.52l-180.73 0c-527.28,0 -1024.15,-525.49 -1024.15,-1054.28l0 -1566.35 -2470.03 0 0 1506.11c0,327.47 -127.28,589.85 -292.99,761.28 -720.55,745.46 -1936.06,254.96 -1936.06,-761.28l0 -1506.11c-631.71,0 -1120.29,-44.55 -1589.22,428.96 -250.41,252.86 -489.21,557.9 -489.21,1047.02zm7199.21 -2259.16l0 2349.53c0,853.44 1385.63,838.72 1385.63,-30.12l0 -2319.41c0,-344.4 -302.53,-662.69 -722.93,-662.69 -338.9,0 -662.69,323.78 -662.69,662.69zm-4699.06 0l0 2319.41c0,877.86 1385.63,871.74 1385.63,0l0 -2319.41c0,-344.4 -302.53,-662.69 -722.94,-662.69 -338.9,0 -662.69,323.78 -662.69,662.69zm5054.76 7624.68c0,136.88 -41.48,284.83 -124.44,441.08 -81.58,156.24 -207.41,305.57 -376.09,446.61 -168.69,141.04 -381.63,255.81 -638.81,341.53 -255.81,87.11 -544.79,129.97 -866.95,129.97 -683.05,0 -1216.78,-199.1 -1599.78,-597.32 -384.4,-398.22 -576.59,-931.94 -576.59,-1602.55 0,-453.52 88.5,-854.51 264.1,-1202.95 175.6,-348.44 430.02,-618.07 761.86,-807.5 333.23,-190.81 730.07,-286.21 1191.89,-286.21 286.22,0 548.94,41.48 788.14,125.82 237.83,84.35 441.08,192.19 607.01,324.93 165.93,132.74 293.13,273.77 380.24,423.11 88.49,150.72 132.73,290.37 132.73,420.35 0,132.73 -49.77,244.74 -147.94,337.38 -99.56,91.25 -218.47,136.88 -359.5,136.88 -91.26,0 -167.31,-23.5 -228.15,-70.51 -60.85,-47.01 -128.6,-123.06 -204.64,-228.15 -135.51,-204.64 -276.54,-359.5 -423.11,-461.82 -147.95,-102.32 -334.62,-153.48 -561.38,-153.48 -326.32,0 -590.41,127.22 -789.52,383.01 -200.49,254.41 -300.05,602.86 -300.05,1045.32 0,207.4 26.27,398.22 77.43,572.44 51.16,174.22 124.45,323.55 222.62,445.23 96.79,123.06 214.32,215.69 352.59,279.31 136.89,63.6 288.98,95.4 453.52,95.4 221.24,0 410.66,-51.16 568.3,-153.48 159.01,-102.32 298.66,-259.95 420.34,-470.12 66.37,-124.44 139.65,-221.24 218.46,-290.37 77.44,-70.52 174.23,-106.47 287.61,-106.47 135.51,0 247.5,52.54 335.99,154.87 88.5,102.31 134.12,211.55 134.12,327.7z"/>
 </g>
</svg>
