<?xml version="1.0" encoding="UTF-8"?>
<!DOCTYPE svg PUBLIC "-//W3C//DTD SVG 1.1//EN" "http://www.w3.org/Graphics/SVG/1.1/DTD/svg11.dtd">
<!-- Creator: CorelDRAW 2018 (64-Bit) -->
<svg xmlns="http://www.w3.org/2000/svg" xml:space="preserve" width="128.395mm" height="130.511mm" version="1.1" style="shape-rendering:geometricPrecision; text-rendering:geometricPrecision; image-rendering:optimizeQuality; fill-rule:evenodd; clip-rule:evenodd"
viewBox="0 0 11259.71 11445.31"
 xmlns:xlink="http://www.w3.org/1999/xlink">
 <defs>
  <style type="text/css">
   <![CDATA[
    .fil0 {fill:white}
   ]]>
  </style>
 </defs>
 <g id="Layer_x0020_1">
  <metadata id="CorelCorpID_0Corel-Layer"/>
  <path class="fil0" d="M494.94 9929.58l0 -5506.12 10269.84 0 0 5506.12c0,532.64 -515.73,1020.8 -1051.73,1020.8l-8166.39 0c-537.15,0 -1051.73,-484.31 -1051.73,-1020.8zm-494.94 -6929.05l0 6929.05c0,836.85 758.08,1515.74 1608.54,1515.74l8042.65 0c850.46,0 1608.53,-678.89 1608.53,-1515.74l0 -6929.05c0,-801.52 -738.57,-1515.73 -1546.66,-1515.73l-464 0 0 1546.67c0,621.74 -504.83,1144.53 -1051.74,1144.53l-185.6 0c-541.48,0 -1051.73,-539.64 -1051.73,-1082.67l0 -1608.53 -2536.53 0 0 1546.67c0,336.29 -130.71,605.73 -300.88,781.78 -739.95,765.53 -1988.19,261.82 -1988.19,-781.78l0 -1546.67c-648.72,0 -1150.46,-45.75 -1632.01,440.51 -257.15,259.67 -502.38,572.92 -502.38,1075.21zm7393.05 -2319.99l0 2412.79c0,876.42 1422.94,861.31 1422.94,-30.93l0 -2381.86c0,-353.68 -310.67,-680.53 -742.4,-680.53 -348.03,0 -680.54,332.5 -680.54,680.53zm-4825.59 0l0 2381.86c0,901.5 1422.94,895.22 1422.94,0l0 -2381.86c0,-353.68 -310.68,-680.53 -742.41,-680.53 -348.03,0 -680.53,332.5 -680.53,680.53zm4284.95 7206.63l-2222.19 0c2.83,258.42 55.37,485.62 156.19,682.98 100.82,197.37 235.71,345.05 403.26,444.44 167.55,100.82 353.56,150.51 555.19,150.51 136.31,0 259.85,-15.62 372.02,-48.29 113.59,-31.24 221.51,-80.93 326.58,-149.09 106.5,-68.16 203.05,-140.57 291.09,-218.67 89.46,-78.09 204.47,-183.17 346.46,-316.64 58.22,-49.7 140.58,-75.25 248.5,-75.25 116.43,0 211.57,32.66 283.99,96.55 70.99,62.47 107.91,153.35 107.91,269.79 0,102.24 -41.17,221.51 -120.7,359.25 -80.93,136.31 -201.63,268.37 -364.92,393.32 -161.87,126.38 -364.92,231.45 -610.56,313.8 -245.65,83.78 -528.22,124.96 -846.28,124.96 -729.84,0 -1296.4,-208.73 -1701.08,-624.77 -404.67,-416.04 -606.3,-979.75 -606.3,-1692.56 0,-335.1 49.7,-647.48 149.09,-934.31 99.39,-286.83 245.64,-532.47 435.92,-738.36 191.69,-204.47 427.39,-362.09 707.13,-471.42 279.72,-109.34 590.68,-164.71 931.47,-164.71 444.44,0 824.98,93.71 1141.62,281.14 318.06,187.43 555.19,428.82 714.22,727.01 157.62,296.76 237.13,599.21 237.13,907.34 0,285.41 -82.36,471.41 -245.64,556.61 -163.29,83.78 -393.32,126.38 -690.09,126.38zm-2222.19 -647.49l2058.9 0c-26.98,-387.63 -132.05,-677.3 -313.81,-870.42 -181.75,-191.69 -420.29,-288.24 -717.06,-288.24 -283.99,0 -515.43,97.97 -697.18,292.5 -181.75,195.95 -292.51,484.2 -330.84,866.15z"/>
 </g>
</svg>
