<?xml version="1.0" encoding="UTF-8"?>
<!DOCTYPE svg PUBLIC "-//W3C//DTD SVG 1.1//EN" "http://www.w3.org/Graphics/SVG/1.1/DTD/svg11.dtd">
<!-- Creator: CorelDRAW 2018 (64-Bit) -->
<svg xmlns="http://www.w3.org/2000/svg" xml:space="preserve" width="128.395mm" height="130.511mm" version="1.1" style="shape-rendering:geometricPrecision; text-rendering:geometricPrecision; image-rendering:optimizeQuality; fill-rule:evenodd; clip-rule:evenodd"
viewBox="0 0 12939.61 13152.9"
 xmlns:xlink="http://www.w3.org/1999/xlink">
 <defs>
  <style type="text/css">
   <![CDATA[
    .fil0 {fill:white}
   ]]>
  </style>
 </defs>
 <g id="Layer_x0020_1">
  <metadata id="CorelCorpID_0Corel-Layer"/>
  <g id="_1046491696">
   <path class="fil0" d="M568.78 11411.03l0 -6327.61 11802.06 0 0 6327.61c0,612.11 -592.68,1173.1 -1208.64,1173.1l-9384.78 0c-617.29,0 -1208.64,-556.57 -1208.64,-1173.1zm-568.78 -7962.84l0 7962.84c0,961.7 871.18,1741.88 1848.52,1741.88l9242.58 0c977.34,0 1848.51,-780.18 1848.51,-1741.88l0 -7962.84c0,-921.11 -848.76,-1741.87 -1777.41,-1741.87l-533.23 0 0 1777.42c0,714.5 -580.15,1315.29 -1208.65,1315.29l-213.29 0c-622.26,0 -1208.64,-620.15 -1208.64,-1244.2l0 -1848.51 -2914.97 0 0 1777.42c0,386.46 -150.21,696.11 -345.77,898.42 -850.35,879.75 -2284.82,300.89 -2284.82,-898.42l0 -1777.42c-745.51,0 -1322.1,-52.58 -1875.5,506.24 -295.52,298.41 -577.34,658.39 -577.34,1235.63z"/>
   <path class="fil0" d="M5652.2 9598.06c-150,-100.44 -930.03,-910.7 -1164.18,-1146.47 -200.2,-201.58 -238.05,-275.46 -577.7,-275.46 -384.68,0 -604.33,373.56 -604.33,604.32 0,391.22 666.99,933.6 1022.02,1288.63 235.03,235.03 945.24,1057.56 1253.09,1057.56 367.02,0 440.9,-138.56 666.54,-364.37l2932.74 -2932.74c350.18,-350.18 417.69,-320.01 417.69,-755.4 0,-242.78 -290.06,-497.67 -604.33,-497.67 -393.5,0 -696.09,429.46 -915.37,648.75 -314.09,314.1 -2121.37,2168.76 -2426.17,2372.86z"/>
   <path class="fil0" d="M8496.06 782.06l0 2772.77c0,1007.18 1635.23,989.81 1635.23,-35.55l0 -2737.23c0,-406.44 -357.02,-782.06 -853.16,-782.06 -399.95,0 -782.07,382.11 -782.07,782.06z"/>
   <path class="fil0" d="M2950.52 782.06l0 2737.23c0,1036 1635.23,1028.78 1635.23,0l0 -2737.23c0,-406.44 -357.03,-782.06 -853.17,-782.06 -399.95,0 -782.06,382.11 -782.06,782.06z"/>
  </g>
 </g>
</svg>
