<?xml version="1.0" encoding="UTF-8"?>
<!DOCTYPE svg PUBLIC "-//W3C//DTD SVG 1.1//EN" "http://www.w3.org/Graphics/SVG/1.1/DTD/svg11.dtd">
<!-- Creator: CorelDRAW 2018 (64-Bit) -->
<svg xmlns="http://www.w3.org/2000/svg" xml:space="preserve" width="1277px" height="1544px" version="1.1" style="shape-rendering:geometricPrecision; text-rendering:geometricPrecision; image-rendering:optimizeQuality; fill-rule:evenodd; clip-rule:evenodd"
viewBox="0 0 1191.83 1441.25"
 xmlns:xlink="http://www.w3.org/1999/xlink">
 <defs>
  <style type="text/css">
   <![CDATA[
    .fil0 {fill:white}
   ]]>
  </style>
 </defs>
 <g id="Layer_x0020_1">
  <metadata id="CorelCorpID_0Corel-Layer"/>
  <path class="fil0" d="M0 173.12c0,-18.12 3.84,-35 9.9,-51.84l14.71 -32.25c1.72,-3.17 3.53,-6.31 5.65,-9.11l13.71 -17.16c3.55,-3.54 4.12,-5.37 7.32,-8.78 3.17,-3.4 4.78,-3.76 8.08,-6.68 11.01,-9.78 21.41,-18.63 35,-25.39 15.93,-7.94 19.29,-8.29 33.32,-13.64l24.68 -6.19c14.94,-2.29 27.17,-2.07 42.21,-2.07 84.6,0 316.73,0 401.33,0 84.61,0 316.73,0 401.34,0 15.04,0 27.27,-0.22 42.21,2.07l24.68 6.19c14.03,5.35 17.38,5.7 33.32,13.64 13.59,6.76 23.99,15.61 35,25.39 3.3,2.92 4.91,3.28 8.08,6.68 3.19,3.41 3.77,5.24 7.32,8.78l13.71 17.16c2.12,2.8 3.93,5.94 5.65,9.11l14.71 32.25c6.06,16.84 9.9,33.72 9.9,51.84l0 1095.01c0,20.74 -4.59,39.05 -11.7,56.74 -4.55,11.32 -8.87,21.72 -15.17,31.8 -2.51,4 -6.66,8.16 -9.9,12.91l-23.73 25.92 -24.56 18.38c-18.44,12.37 -45.77,22.23 -68.47,25.47 -15.06,2.15 -28.31,1.89 -45.08,1.89 -86.37,0 -310.93,0 -397.31,0 -86.37,0 -310.93,0 -397.3,0 -16.77,0 -30.02,0.26 -45.08,-1.89 -22.7,-3.24 -50.03,-13.1 -68.47,-25.47l-24.56 -18.38 -23.73 -25.92c-3.24,-4.75 -7.39,-8.91 -9.9,-12.91 -6.3,-10.08 -10.62,-20.48 -15.17,-31.8 -7.11,-17.69 -11.7,-36 -11.7,-56.74l0 -1095.01zm120.77 1081.59c0,28.97 11.17,48.28 34.6,59.34 5.07,2.4 9,4.26 15.2,4.93 9.51,1.02 329.26,0.63 425.34,0.35 96.09,0.28 415.83,0.67 425.35,-0.35 6.2,-0.67 10.13,-2.53 15.2,-4.93 23.42,-11.06 34.6,-30.37 34.6,-59.34l0 -1072.2c0,-15.69 -5.1,-30.92 -15.74,-41.97l-15.13 -11.67c-5.46,-3.29 -14.13,-6.75 -22.81,-6.75l-421.47 0 -421.46 0c-8.68,0 -17.35,3.46 -22.81,6.75l-15.13 11.67c-10.64,11.05 -15.74,26.28 -15.74,41.97l0 1072.2zm377.16 -519.73l0 20.51c0,29.69 -111.82,92.98 -139.48,106.66 -13.95,6.9 -25.44,14.09 -40.32,21.23l-85.1 37.96c-14.34,5.67 -30.48,10.86 -30.48,33.12l0 102.56c0,18.26 12.51,30.77 30.77,30.77l209.23 0c2.67,0 62,1.78 132.02,3.16 -35.65,-42.36 -57.14,-97.04 -57.14,-156.74 0,-121.02 88.27,-221.42 203.93,-240.37 7.67,-13.01 12.55,-22.8 18.94,-38.54 13.9,-34.27 3.11,-23.63 20.7,-42.89 16.58,-18.14 22.47,-45.84 13.62,-70.01 -13.32,-36.38 -10.03,4.49 -10.03,-76.13 0,-44.08 0.23,-69.62 -11.49,-103.38 -20.03,-57.7 -78.61,-91.49 -138.25,-91.49 -40.36,0 -71.36,-1.25 -108.06,17.06 -112.09,55.94 -69.55,188.21 -79.04,232.75 -0.51,2.41 -38.57,54.11 7.53,95.91 10.29,9.34 6,13.24 13.38,31.75 11.47,28.73 21.45,48.34 40.17,72.65 3.3,4.27 9.1,9.25 9.1,13.46zm452.19 352.81l7.29 0c40.82,0 30.77,-45.9 30.77,-57.43 0,-4.11 0.27,-7.06 0.61,-9.57 -9.31,24.47 -22.44,47.04 -38.67,67zm-189.08 -352.16c109.67,0 198.58,88.91 198.58,198.58 0,109.68 -88.91,198.59 -198.58,198.59 -109.68,0 -198.59,-88.91 -198.59,-198.59 0,-109.67 88.91,-198.58 198.59,-198.58zm-33.55 56.76l77.17 0 0 109.12 109.11 0 0 77.17 -109.11 0 0 109.11 -77.17 0 0 -109.11 -109.12 0 0 -77.17 109.12 0 0 -109.12z"/>
 </g>
</svg>
