<?xml version="1.0" encoding="UTF-8"?>
<!DOCTYPE svg PUBLIC "-//W3C//DTD SVG 1.1//EN" "http://www.w3.org/Graphics/SVG/1.1/DTD/svg11.dtd">
<!-- Creator: CorelDRAW 2018 (64-Bit) -->
<svg xmlns="http://www.w3.org/2000/svg" xml:space="preserve" width="97.9803mm" height="97.9803mm" version="1.1" style="shape-rendering:geometricPrecision; text-rendering:geometricPrecision; image-rendering:optimizeQuality; fill-rule:evenodd; clip-rule:evenodd"
viewBox="0 0 4852.96 4852.96"
 xmlns:xlink="http://www.w3.org/1999/xlink">
 <defs>
  <style type="text/css">
   <![CDATA[
    .fil0 {fill:white}
   ]]>
  </style>
 </defs>
 <g id="Layer_x0020_1">
  <metadata id="CorelCorpID_0Corel-Layer"/>
  <path class="fil0" d="M2426.48 0c1340.12,0 2426.48,1086.37 2426.48,2426.48 0,1340.12 -1086.37,2426.48 -2426.48,2426.48 -1340.11,0 -2426.48,-1086.37 -2426.48,-2426.48 0,-1340.11 1086.37,-2426.48 2426.48,-2426.48zm0 524.9c1050.22,0 1901.58,851.37 1901.58,1901.57 0,1050.22 -851.36,1901.58 -1901.58,1901.58 -1050.21,0 -1901.57,-851.36 -1901.57,-1901.58 0,-1050.21 851.37,-1901.57 1901.57,-1901.57zm2.74 1520.63l-763.13 -763.13 -383.69 383.69 763.13 763.13 -763.13 763.13 383.69 383.69 763.13 -763.13 763.13 763.13 383.69 -383.69 -763.13 -763.13 763.13 -763.13 -383.69 -383.69 -763.13 763.13z"/>
 </g>
</svg>
