<?xml version="1.0" encoding="UTF-8"?>
<!DOCTYPE svg PUBLIC "-//W3C//DTD SVG 1.1//EN" "http://www.w3.org/Graphics/SVG/1.1/DTD/svg11.dtd">
<!-- Creator: CorelDRAW 2018 (64-Bit) -->
<svg xmlns="http://www.w3.org/2000/svg" xml:space="preserve" width="1157px" height="1157px" version="1.1" style="shape-rendering:geometricPrecision; text-rendering:geometricPrecision; image-rendering:optimizeQuality; fill-rule:evenodd; clip-rule:evenodd"
viewBox="0 0 1157 1157"
 xmlns:xlink="http://www.w3.org/1999/xlink">
 <defs>
  <style type="text/css">
   <![CDATA[
    .fil0 {fill:#4D5B62}
   ]]>
  </style>
 </defs>
 <g id="Layer_x0020_1">
  <metadata id="CorelCorpID_0Corel-Layer"/>
  <path class="fil0" d="M578.5 0c319.5,0 578.5,259 578.5,578.5 0,319.5 -259,578.5 -578.5,578.5 -319.5,0 -578.5,-259 -578.5,-578.5 0,-319.5 259,-578.5 578.5,-578.5zm0 125.14c250.38,0 453.36,202.98 453.36,453.36 0,250.38 -202.98,453.36 -453.36,453.36 -250.38,0 -453.36,-202.98 -453.36,-453.36 0,-250.38 202.98,-453.36 453.36,-453.36zm-228.95 587.92l58.37 -45.57c56.77,-46.31 119.02,-92.06 175.75,-138.36l204.7 -161.09c4.69,-3.73 9.36,-7.31 14.57,-11.33 4.67,-3.61 10.72,-9.32 16.02,-11.85 -3.11,6.02 -44.75,44.25 -51.36,51.51 -17.28,18.97 -34.55,33.7 -52.1,51.3 -24.16,24.23 -78.16,79.42 -103.59,101.97l-51.17 50.9c-17.45,17.54 -34.87,33.51 -52.37,51.06 -33.67,33.76 -71.27,68.58 -102.86,102.29 2.8,3.97 164.17,120.3 172.87,126.62 14.06,10.22 30.32,23.15 54.95,13.71 19.79,-7.59 24.84,-20.9 32.57,-42.45 59.21,-165.1 121.09,-331.03 181.26,-496.09 4.65,-12.76 23.94,-50.17 -3.78,-49.38 -6.71,0.19 -196.05,73.88 -218.78,82.76 -72.92,28.49 -144.96,54.92 -217.74,83.47l-162.55 62.35c-22.16,8.36 -36.37,11.68 -44.41,31.89 -8.07,20.28 0.54,38.87 17.94,51.27 14.68,10.46 28.53,20.97 43.42,31.53 7.41,5.26 83.03,61.38 88.29,63.49zm121.92 143.79c-1.59,-1.19 -3.47,-2.49 -5.27,-3.76l-148.44 -106.43c-0.39,7.46 5.59,33.11 7.2,42.22 4.66,26.41 17.02,108.53 25.93,121.37 5.92,8.53 21.96,15.47 37.1,10.02 8.1,-2.92 22.23,-13.68 30.26,-18.8 11.69,-7.46 50.5,-32.42 58.04,-40.29l-4.82 -4.33z"/>
 </g>
</svg>
