<?xml version="1.0" encoding="UTF-8"?>
<!DOCTYPE svg PUBLIC "-//W3C//DTD SVG 1.1//EN" "http://www.w3.org/Graphics/SVG/1.1/DTD/svg11.dtd">
<!-- Creator: CorelDRAW 2018 (64-Bit) -->
<svg xmlns="http://www.w3.org/2000/svg" xml:space="preserve" width="1479px" height="1544px" version="1.1" style="shape-rendering:geometricPrecision; text-rendering:geometricPrecision; image-rendering:optimizeQuality; fill-rule:evenodd; clip-rule:evenodd"
viewBox="0 0 1246.98 1301.95"
 xmlns:xlink="http://www.w3.org/1999/xlink">
 <defs>
  <style type="text/css">
   <![CDATA[
    .fil0 {fill:white}
   ]]>
  </style>
 </defs>
 <g id="Layer_x0020_1">
  <metadata id="CorelCorpID_0Corel-Layer"/>
  <path class="fil0" d="M708.67 1301.94c-78.03,0 -280.88,0 -358.91,0 -15.15,0 -27.12,0.23 -40.72,-1.71 -20.51,-2.93 -45.2,-11.83 -61.85,-23l-22.19 -16.61 -21.44 -23.41c-2.92,-4.3 -6.67,-8.05 -8.94,-11.67 -5.69,-9.11 -9.59,-18.5 -13.7,-28.72 -6.43,-15.99 -10.57,-32.53 -10.57,-51.26l0 -404.5 109.1 0 0 392.38c0,26.17 10.09,43.61 31.25,53.6 4.58,2.17 8.13,3.85 13.73,4.45 8.6,0.93 297.44,0.58 384.24,0.32 86.79,0.26 375.63,0.61 384.23,-0.32 5.6,-0.6 9.15,-2.28 13.73,-4.45 21.16,-9.99 31.25,-27.43 31.25,-53.6l0 -968.57c0,-14.17 -4.6,-27.93 -14.21,-37.91l-13.67 -10.54c-4.93,-2.97 -12.76,-6.1 -20.61,-6.1l-380.72 0 -380.73 0c-7.85,0 -15.68,3.13 -20.61,6.1l-13.66 10.54c-9.62,9.98 -14.22,23.74 -14.22,37.91l0 392.38 -109.1 0 0 -400.87c0,-16.36 3.46,-31.61 8.94,-46.82l13.29 -29.13c1.56,-2.87 3.18,-5.71 5.11,-8.23l12.38 -15.51c3.21,-3.19 3.72,-4.85 6.61,-7.93 2.87,-3.07 4.32,-3.39 7.3,-6.04 9.94,-8.83 19.34,-16.82 31.61,-22.93 14.4,-7.17 17.43,-7.49 30.11,-12.32l22.29 -5.59c13.5,-2.07 24.55,-1.88 38.13,-1.88 76.43,0 286.12,0 362.55,0 76.42,0 286.11,0 362.54,0 13.58,0 24.63,-0.19 38.13,1.88l22.29 5.59c12.68,4.83 15.71,5.15 30.11,12.32 12.27,6.11 21.67,14.1 31.61,22.93 2.98,2.65 4.44,2.97 7.3,6.04 2.89,3.08 3.41,4.74 6.61,7.93l12.38 15.51c1.93,2.52 3.56,5.36 5.11,8.23l13.29 29.13c5.48,15.21 8.94,30.46 8.94,46.82l0 989.18c0,18.73 -4.14,35.27 -10.57,51.26 -4.11,10.22 -8.01,19.61 -13.7,28.72 -2.27,3.62 -6.02,7.37 -8.94,11.67l-21.44 23.41 -22.19 16.61c-16.65,11.17 -41.34,20.07 -61.85,23 -13.6,1.94 -25.57,1.71 -40.72,1.71 -78.02,0 -280.88,0 -358.9,0zm-708.67 -707.34l501.56 0 0 -121.04 152.07 87.8 152.07 87.79 -152.07 87.8 -152.07 87.8 0 -121.05 -501.56 0 0 -109.1z"/>
 </g>
</svg>
